<svg xmlns="http://www.w3.org/2000/svg" width="1440" height="900" viewBox="0 0 1440 900">
  <rect width="1440" height="900" fill="#09090b"/>
  <rect x="0" y="0" width="280" height="900" fill="#0b1220"/>
  <text x="28" y="52" fill="#f3f4f6" font-family="Segoe UI" font-size="24" font-weight="700">Painel Admin</text>

  <rect x="22" y="120" width="236" height="54" rx="14" fill="#10b981"/>
  <text x="42" y="154" fill="#04261c" font-family="Segoe UI" font-size="16" font-weight="700">Painel admin</text>
  <rect x="22" y="186" width="236" height="54" rx="14" fill="#111827" stroke="#334155"/>
  <text x="42" y="220" fill="#cbd5e1" font-family="Segoe UI" font-size="16">Gerenciar clientes</text>
  <rect x="22" y="252" width="236" height="54" rx="14" fill="#111827" stroke="#334155"/>
  <text x="42" y="286" fill="#cbd5e1" font-family="Segoe UI" font-size="16">Visao do cliente</text>

  <rect x="280" y="0" width="1160" height="80" fill="#0f172a"/>
  <text x="320" y="48" fill="#f3f4f6" font-family="Segoe UI" font-size="24" font-weight="700">Supervisao operacional</text>

  <text x="320" y="135" fill="#f3f4f6" font-family="Segoe UI" font-size="40" font-weight="800">Resumo dos Clientes</text>
  <rect x="320" y="170" width="250" height="130" rx="18" fill="#111827" stroke="#334155"/>
  <rect x="590" y="170" width="250" height="130" rx="18" fill="#111827" stroke="#334155"/>
  <rect x="860" y="170" width="250" height="130" rx="18" fill="#111827" stroke="#334155"/>
  <rect x="1130" y="170" width="250" height="130" rx="18" fill="#111827" stroke="#334155"/>

  <text x="340" y="215" fill="#6ee7b7" font-family="Segoe UI" font-size="13">Clientes cadastrados</text>
  <text x="340" y="265" fill="#f8fafc" font-family="Segoe UI" font-size="44" font-weight="700">2</text>
  <text x="610" y="215" fill="#bfdbfe" font-family="Segoe UI" font-size="13">Produtos monitorados</text>
  <text x="610" y="265" fill="#f8fafc" font-family="Segoe UI" font-size="44" font-weight="700">8</text>
  <text x="880" y="215" fill="#fde68a" font-family="Segoe UI" font-size="13">Media por cliente</text>
  <text x="880" y="265" fill="#f8fafc" font-family="Segoe UI" font-size="44" font-weight="700">4</text>
  <text x="1150" y="215" fill="#fecaca" font-family="Segoe UI" font-size="13">Listas de compra</text>
  <text x="1150" y="265" fill="#f8fafc" font-family="Segoe UI" font-size="44" font-weight="700">6</text>

  <rect x="320" y="330" width="1060" height="500" rx="24" fill="#111827" stroke="#334155"/>
  <rect x="350" y="370" width="1000" height="56" rx="12" fill="#0b1220"/>
  <text x="370" y="405" fill="#cbd5e1" font-family="Segoe UI" font-size="16">Cliente | Tipo | Produtos | Itens criticos | Compras</text>

  <rect x="350" y="440" width="1000" height="70" rx="12" fill="#0b1220" stroke="#334155"/>
  <text x="370" y="482" fill="#f3f4f6" font-family="Segoe UI" font-size="16">Restaurante Sabor da Casa | Restaurante | 6 | 4 | 4</text>

  <rect x="350" y="525" width="1000" height="70" rx="12" fill="#0b1220" stroke="#334155"/>
  <text x="370" y="567" fill="#f3f4f6" font-family="Segoe UI" font-size="16">Cafeteria Aroma Viva | Cafeteria | 2 | 2 | 2</text>

  <rect x="350" y="620" width="460" height="170" rx="18" fill="#0b1220" stroke="#334155"/>
  <text x="380" y="665" fill="#6ee7b7" font-family="Segoe UI" font-size="18" font-weight="700">Selecionar cliente ativo</text>
  <rect x="380" y="690" width="400" height="50" rx="12" fill="#111827" stroke="#334155"/>
</svg>
