<svg xmlns="http://www.w3.org/2000/svg" width="1440" height="900" viewBox="0 0 1440 900">
  <rect width="1440" height="900" fill="#09090b"/>
  <rect x="0" y="0" width="280" height="900" fill="#0b1220"/>
  <text x="30" y="50" fill="#f3f4f6" font-family="Segoe UI" font-size="26" font-weight="700">Desperdicio Zero</text>
  <text x="30" y="72" fill="#6ee7b7" font-family="Segoe UI" font-size="13">Cozinha Inteligente</text>

  <rect x="22" y="120" width="236" height="54" rx="14" fill="#10b981"/>
  <text x="46" y="154" fill="#04261c" font-family="Segoe UI" font-size="16" font-weight="700">Home</text>
  <rect x="22" y="186" width="236" height="54" rx="14" fill="#111827" stroke="#334155"/>
  <text x="46" y="220" fill="#cbd5e1" font-family="Segoe UI" font-size="16">Minha despensa</text>
  <rect x="22" y="252" width="236" height="54" rx="14" fill="#111827" stroke="#334155"/>
  <text x="46" y="286" fill="#cbd5e1" font-family="Segoe UI" font-size="16">Lista de compras</text>
  <rect x="22" y="318" width="236" height="54" rx="14" fill="#111827" stroke="#334155"/>
  <text x="46" y="352" fill="#cbd5e1" font-family="Segoe UI" font-size="16">Receitas sugeridas</text>

  <rect x="280" y="0" width="1160" height="80" fill="#0f172a"/>
  <text x="320" y="48" fill="#f3f4f6" font-family="Segoe UI" font-size="24" font-weight="700">Dashboard do Cliente</text>
  <rect x="1160" y="20" width="220" height="40" rx="12" fill="#111827" stroke="#334155"/>
  <text x="1180" y="45" fill="#cbd5e1" font-family="Segoe UI" font-size="14">4 itens com atencao</text>

  <text x="320" y="130" fill="#f3f4f6" font-family="Segoe UI" font-size="42" font-weight="800">Bem-vindo, Restaurante Sabor da Casa</text>
  <rect x="320" y="170" width="250" height="130" rx="18" fill="#111827" stroke="#334155"/>
  <rect x="590" y="170" width="250" height="130" rx="18" fill="#111827" stroke="#334155"/>
  <rect x="860" y="170" width="250" height="130" rx="18" fill="#111827" stroke="#334155"/>
  <rect x="1130" y="170" width="250" height="130" rx="18" fill="#111827" stroke="#334155"/>

  <text x="340" y="215" fill="#6ee7b7" font-family="Segoe UI" font-size="13">Itens cadastrados</text>
  <text x="340" y="265" fill="#f8fafc" font-family="Segoe UI" font-size="44" font-weight="700">6</text>
  <text x="610" y="215" fill="#fecaca" font-family="Segoe UI" font-size="13">Itens criticos</text>
  <text x="610" y="265" fill="#f8fafc" font-family="Segoe UI" font-size="44" font-weight="700">4</text>
  <text x="880" y="215" fill="#fde68a" font-family="Segoe UI" font-size="13">Compras concluidas</text>
  <text x="880" y="265" fill="#f8fafc" font-family="Segoe UI" font-size="44" font-weight="700">1/4</text>
  <text x="1150" y="215" fill="#bfdbfe" font-family="Segoe UI" font-size="13">Sugestoes ativas</text>
  <text x="1150" y="265" fill="#f8fafc" font-family="Segoe UI" font-size="44" font-weight="700">3</text>

  <rect x="320" y="330" width="700" height="510" rx="24" fill="#111827" stroke="#334155"/>
  <text x="350" y="375" fill="#f3f4f6" font-family="Segoe UI" font-size="28" font-weight="700">Itens que precisam de acao</text>
  <rect x="350" y="400" width="640" height="90" rx="14" fill="#0b1220" stroke="#334155"/>
  <rect x="350" y="505" width="640" height="90" rx="14" fill="#0b1220" stroke="#334155"/>
  <rect x="350" y="610" width="640" height="90" rx="14" fill="#0b1220" stroke="#334155"/>

  <rect x="1040" y="330" width="340" height="240" rx="24" fill="#111827" stroke="#334155"/>
  <text x="1068" y="375" fill="#6ee7b7" font-family="Segoe UI" font-size="14">Sugestao do dia</text>
  <text x="1068" y="410" fill="#f3f4f6" font-family="Segoe UI" font-size="24" font-weight="700">Combo promocional</text>

  <rect x="1040" y="590" width="340" height="250" rx="24" fill="#111827" stroke="#334155"/>
  <text x="1068" y="635" fill="#6ee7b7" font-family="Segoe UI" font-size="14">Proximos passos</text>
</svg>
